<?xml version="1.0"?>
<COLLADA xmlns="http://www.collada.org/2005/11/COLLADASchema" version="1.4.1">
	<asset>
		<contributor>
			<author>Assimp</author>
			<authoring_tool>Assimp Exporter</authoring_tool>
		</contributor>
		<created>2022-04-08T13:23:27</created>
		<modified>2022-04-08T13:23:27</modified>
		<unit name="meter" meter="1.000000" />
		<up_axis>Y_UP</up_axis>
	</asset>
	<library_effects>
		<effect id="boxTX-fx" name="boxTX">
			<profile_COMMON>
				<technique sid="standard">
					<phong>
						<diffuse>
							<color sid="diffuse">0.500000   0.500000   0.500000   1.000000</color>
						</diffuse>
					</phong>
				</technique>
			</profile_COMMON>
		</effect>
	</library_effects>
	<library_materials>
		<material id="boxTX" name="boxTX">
			<instance_effect url="#boxTX-fx"/>
		</material>
	</library_materials>
	<library_geometries>
		<geometry id="meshId0" name="meshId0_name" >
			<mesh>
				<source id="meshId0-positions" name="meshId0-positions">
					<float_array id="meshId0-positions-array" count="72"> 
						-5.875000 -5.875000 5.875000 5.875000 -5.874999 5.875000 5.875000 5.875000 5.875000 -5.875000 5.875000 5.875000 -5.875000 5.875000 5.875000 5.875000 5.875000 5.875000 5.875000 5.875000 -5.875000 -5.875000 5.875000 -5.875000 -5.875000 5.875000 -5.875000 5.875000 5.875000 -5.875000 5.875000 -5.874999 -5.875000 -5.875000 -5.875000 -5.875000 -5.875000 -5.875000 -5.875000 5.875000 -5.874999 -5.875000 5.875000 -5.874999 5.875000 -5.875000 -5.875000 5.875000 5.875000 -5.874999 5.875000 5.875000 -5.874999 -5.875000 5.875000 5.875000 -5.875000 5.875000 5.875000 5.875000 -5.875000 -5.875000 -5.875000 -5.875000 -5.875000 5.875000 -5.875000 5.875000 5.875000 -5.875000 5.875000 -5.875000 
					</float_array>
					<technique_common>
						<accessor count="24" offset="0" source="#meshId0-positions-array" stride="3">
							<param name="X" type="float" />
							<param name="Y" type="float" />
							<param name="Z" type="float" />
						</accessor>
					</technique_common>
				</source>
				<source id="meshId0-normals" name="meshId0-normals">
					<float_array id="meshId0-normals-array" count="72"> 
						-0.000000 0.000000 1.000000 -0.000000 0.000000 1.000000 -0.000000 0.000000 1.000000 -0.000000 0.000000 1.000000 0.000000 1.000000 -0.000000 0.000000 1.000000 -0.000000 0.000000 1.000000 -0.000000 0.000000 1.000000 -0.000000 0.000000 0.000000 -1.000000 0.000000 0.000000 -1.000000 0.000000 0.000000 -1.000000 0.000000 0.000000 -1.000000 0.000000 -1.000000 0.000000 0.000000 -1.000000 0.000000 0.000000 -1.000000 0.000000 0.000000 -1.000000 0.000000 1.000000 0.000000 0.000000 1.000000 0.000000 0.000000 1.000000 0.000000 0.000000 1.000000 0.000000 0.000000 -1.000000 0.000000 0.000000 -1.000000 0.000000 0.000000 -1.000000 0.000000 0.000000 -1.000000 0.000000 0.000000 
					</float_array>
					<technique_common>
						<accessor count="24" offset="0" source="#meshId0-normals-array" stride="3">
							<param name="X" type="float" />
							<param name="Y" type="float" />
							<param name="Z" type="float" />
						</accessor>
					</technique_common>
				</source>
				<source id="meshId0-tangents" name="meshId0-tangents">
					<float_array id="meshId0-tangents-array" count="72"> 
						1.000000 0.000000 0.000000 1.000000 0.000000 0.000000 1.000000 0.000000 0.000000 1.000000 0.000000 0.000000 1.000000 0.000000 -0.000000 1.000000 0.000000 -0.000000 1.000000 0.000000 -0.000000 1.000000 0.000000 -0.000000 1.000000 0.000000 0.000000 1.000000 0.000000 0.000000 1.000000 0.000000 0.000000 1.000000 0.000000 0.000000 1.000000 0.000000 -0.000000 1.000000 0.000000 -0.000000 1.000000 0.000000 -0.000000 1.000000 0.000000 -0.000000 0.000000 -0.000000 -1.000000 0.000000 -0.000000 -1.000000 0.000000 -0.000000 -1.000000 0.000000 -0.000000 -1.000000 0.000000 0.000000 1.000000 0.000000 0.000000 1.000000 0.000000 0.000000 1.000000 0.000000 0.000000 1.000000 
					</float_array>
					<technique_common>
						<accessor count="24" offset="0" source="#meshId0-tangents-array" stride="3">
							<param name="X" type="float" />
							<param name="Y" type="float" />
							<param name="Z" type="float" />
						</accessor>
					</technique_common>
				</source>
				<source id="meshId0-bitangents" name="meshId0-bitangents">
					<float_array id="meshId0-bitangents-array" count="72"> 
						-0.000000 1.000000 0.000000 -0.000000 1.000000 0.000000 -0.000000 1.000000 0.000000 -0.000000 1.000000 0.000000 -0.000000 -0.000000 -1.000000 -0.000000 -0.000000 -1.000000 -0.000000 -0.000000 -1.000000 -0.000000 -0.000000 -1.000000 0.000000 -1.000000 0.000000 0.000000 -1.000000 0.000000 0.000000 -1.000000 0.000000 0.000000 -1.000000 0.000000 0.000000 0.000000 1.000000 0.000000 0.000000 1.000000 0.000000 0.000000 1.000000 0.000000 0.000000 1.000000 0.000000 1.000000 -0.000000 0.000000 1.000000 -0.000000 0.000000 1.000000 -0.000000 0.000000 1.000000 -0.000000 0.000000 1.000000 -0.000000 0.000000 1.000000 -0.000000 0.000000 1.000000 -0.000000 0.000000 1.000000 -0.000000 
					</float_array>
					<technique_common>
						<accessor count="24" offset="0" source="#meshId0-bitangents-array" stride="3">
							<param name="X" type="float" />
							<param name="Y" type="float" />
							<param name="Z" type="float" />
						</accessor>
					</technique_common>
				</source>
				<source id="meshId0-tex0" name="meshId0-tex0">
					<float_array id="meshId0-tex0-array" count="48"> 
						0.233188 0.797139 0.293316 0.797139 0.293316 0.857266 0.233188 0.857266 0.233188 0.857266 0.293316 0.857266 0.293316 0.917394 0.233188 0.917394 0.000000 0.000000 0.060127 0.000000 0.060127 0.060128 0.000000 0.060128 0.233188 0.737011 0.293316 0.737011 0.293316 0.797139 0.233188 0.797139 0.293316 0.797139 0.353443 0.797139 0.353443 0.857266 0.293316 0.857266 0.173061 0.797139 0.233188 0.797139 0.233188 0.857266 0.173061 0.857266 
					</float_array>
					<technique_common>
						<accessor count="24" offset="0" source="#meshId0-tex0-array" stride="2">
							<param name="S" type="float" />
							<param name="T" type="float" />
						</accessor>
					</technique_common>
				</source>
				<vertices id="meshId0-vertices">
					<input semantic="POSITION" source="#meshId0-positions" />
				</vertices>
				<polylist count="12" material="defaultMaterial">
					<input offset="0" semantic="VERTEX" source="#meshId0-vertices" />
					<input offset="0" semantic="NORMAL" source="#meshId0-normals" />
					<input offset="0" semantic="TANGENT" source="#meshId0-tangents" />
					<input offset="0" semantic="BINORMAL" source="#meshId0-bitangents" />
					<input offset="0" semantic="TEXCOORD" source="#meshId0-tex0" set="0" />
					<vcount>
						3 3 3 3 3 3 3 3 3 3 3 3 
					</vcount>
					<p>
						3 0 1 1 2 3 7 4 5 5 6 7 11 8 9 9 10 11 15 12 13 13 14 15 19 16 17 17 18 19 23 20 21 21 22 23 
					</p>
				</polylist>
			</mesh>
		</geometry>
		<geometry id="meshId1" name="meshId1_name" >
			<mesh>
				<source id="meshId1-positions" name="meshId1-positions">
					<float_array id="meshId1-positions-array" count="144"> 
						-14.549475 7.302501 22.542500 -14.549475 -7.302497 22.542500 14.549475 -7.302497 22.542500 14.549475 7.302501 22.542500 -14.549475 -7.302497 -22.542500 -14.549475 7.302501 -22.542500 14.549475 7.302501 -22.542500 14.549475 -7.302497 -22.542500 14.922500 7.302501 22.169476 14.922500 -7.302497 22.169476 14.922499 -7.302497 -22.169476 14.922499 7.302501 -22.169476 -14.922500 7.302501 -22.169476 -14.922500 -7.302497 -22.169476 -14.922499 -7.302497 22.169476 -14.922499 7.302501 22.169476 -14.922499 7.302501 22.169476 -14.549475 7.302501 22.542500 14.549475 7.302501 22.542500 14.922500 7.302501 22.169476 14.922499 7.302501 -22.169476 14.549475 7.302501 -22.542500 -14.549475 7.302501 -22.542500 -14.922500 7.302501 -22.169476 -14.922500 -7.302497 -22.169476 -14.549475 -7.302497 -22.542500 14.549475 -7.302497 -22.542500 14.922499 -7.302497 -22.169476 14.922500 -7.302497 22.169476 14.549475 -7.302497 22.542500 -14.549475 -7.302497 22.542500 -14.922499 -7.302497 22.169476 -14.922499 -7.302497 22.169476 -14.549475 -7.302497 22.542500 -14.549475 7.302501 22.542500 -14.922499 7.302501 22.169476 14.549475 -7.302497 22.542500 14.922500 -7.302497 22.169476 14.922500 7.302501 22.169476 14.549475 7.302501 22.542500 -14.922500 7.302501 -22.169476 -14.549475 7.302501 -22.542500 -14.549475 -7.302497 -22.542500 -14.922500 -7.302497 -22.169476 14.549475 7.302501 -22.542500 14.922499 7.302501 -22.169476 14.922499 -7.302497 -22.169476 14.549475 -7.302497 -22.542500 
					</float_array>
					<technique_common>
						<accessor count="48" offset="0" source="#meshId1-positions-array" stride="3">
							<param name="X" type="float" />
							<param name="Y" type="float" />
							<param name="Z" type="float" />
						</accessor>
					</technique_common>
				</source>
				<source id="meshId1-normals" name="meshId1-normals">
					<float_array id="meshId1-normals-array" count="144"> 
						0.000000 0.000000 1.000000 0.000000 0.000000 1.000000 0.000000 0.000000 1.000000 0.000000 0.000000 1.000000 0.000000 0.000000 -1.000000 0.000000 0.000000 -1.000000 0.000000 0.000000 -1.000000 0.000000 0.000000 -1.000000 1.000000 0.000000 0.000000 1.000000 0.000000 0.000000 1.000000 0.000000 0.000000 1.000000 0.000000 0.000000 -1.000000 0.000000 0.000000 -1.000000 0.000000 0.000000 -1.000000 0.000000 0.000000 -1.000000 0.000000 0.000000 0.000000 1.000000 -0.000000 0.000000 1.000000 -0.000000 0.000000 1.000000 -0.000000 0.000000 1.000000 -0.000000 0.000000 1.000000 -0.000000 0.000000 1.000000 -0.000000 0.000000 1.000000 -0.000000 0.000000 1.000000 -0.000000 0.000000 -1.000000 -0.000000 0.000000 -1.000000 -0.000000 0.000000 -1.000000 -0.000000 0.000000 -1.000000 -0.000000 0.000000 -1.000000 -0.000000 0.000000 -1.000000 -0.000000 0.000000 -1.000000 -0.000000 0.000000 -1.000000 -0.000000 -0.707109 0.000000 0.707105 -0.707109 0.000000 0.707105 -0.707109 0.000000 0.707105 -0.707109 0.000000 0.707105 0.707109 0.000000 0.707105 0.707109 0.000000 0.707105 0.707109 0.000000 0.707105 0.707109 0.000000 0.707105 -0.707109 0.000000 -0.707105 -0.707109 0.000000 -0.707105 -0.707109 0.000000 -0.707105 -0.707109 0.000000 -0.707105 0.707109 0.000000 -0.707105 0.707109 0.000000 -0.707105 0.707109 0.000000 -0.707105 0.707109 0.000000 -0.707105 
					</float_array>
					<technique_common>
						<accessor count="48" offset="0" source="#meshId1-normals-array" stride="3">
							<param name="X" type="float" />
							<param name="Y" type="float" />
							<param name="Z" type="float" />
						</accessor>
					</technique_common>
				</source>
				<source id="meshId1-tangents" name="meshId1-tangents">
					<float_array id="meshId1-tangents-array" count="144"> 
						1.000000 0.000000 0.000000 1.000000 0.000000 0.000000 1.000000 0.000000 0.000000 1.000000 0.000000 0.000000 1.000000 -0.000000 0.000000 1.000000 -0.000000 0.000000 1.000000 0.000000 0.000000 1.000000 -0.000000 0.000000 0.000000 -1.000000 0.000000 0.000000 -1.000000 0.000000 0.000000 -1.000000 0.000001 -0.000000 -1.000000 0.000001 0.000000 1.000000 -0.000001 0.000000 1.000000 -0.000001 -0.000000 1.000000 0.000000 -0.000000 1.000000 0.000000 0.707111 0.000000 0.707103 0.968262 0.000000 0.249938 0.896305 -0.000000 -0.443438 0.827716 -0.000000 -0.561147 1.000000 -0.000000 0.000000 0.460137 0.000000 -0.887848 0.460137 0.000000 -0.887848 1.000000 -0.000000 -0.000598 1.000000 -0.000000 0.000020 1.000000 -0.000000 0.000007 1.000000 -0.000000 0.000004 1.000000 -0.000000 0.000006 1.000000 0.000000 0.000000 1.000000 0.000000 -0.000000 1.000000 -0.000000 0.000000 1.000000 -0.000000 0.000000 0.707105 0.000000 0.707109 0.707105 0.000000 0.707109 0.707105 0.000000 0.707109 0.707105 0.000000 0.707109 0.707105 0.000000 -0.707109 0.707105 0.000000 -0.707109 0.707105 0.000000 -0.707109 0.707105 0.000000 -0.707109 0.707105 0.000000 -0.707109 0.707105 0.000000 -0.707109 0.707105 0.000000 -0.707109 0.707105 0.000000 -0.707109 0.707105 0.000000 0.707109 0.707105 0.000000 0.707109 0.707105 0.000000 0.707109 0.707105 0.000000 0.707109 
					</float_array>
					<technique_common>
						<accessor count="48" offset="0" source="#meshId1-tangents-array" stride="3">
							<param name="X" type="float" />
							<param name="Y" type="float" />
							<param name="Z" type="float" />
						</accessor>
					</technique_common>
				</source>
				<source id="meshId1-bitangents" name="meshId1-bitangents">
					<float_array id="meshId1-bitangents-array" count="144"> 
						0.000000 1.000000 0.000000 0.000000 1.000000 0.000000 0.000000 1.000000 0.000000 0.000000 1.000000 0.000000 -0.000000 -1.000000 0.000000 -0.000000 -1.000000 0.000000 0.000000 -1.000000 0.000000 -0.000000 -1.000000 0.000000 0.000000 0.000000 -1.000000 0.000000 -0.000000 -1.000000 0.000000 -0.000001 -1.000000 0.000000 -0.000001 -1.000000 0.000000 -0.000001 -1.000000 0.000000 -0.000001 -1.000000 0.000000 0.000000 -1.000000 0.000000 0.000000 -1.000000 0.707103 -0.000000 -0.707111 0.249938 -0.000000 -0.968262 -0.443438 -0.000000 -0.896305 -0.561147 -0.000000 -0.827716 0.000000 -0.000000 -1.000000 0.887848 0.000000 0.460137 0.887848 0.000000 0.460137 -0.000598 -0.000000 -1.000000 -0.000020 -0.000000 1.000000 -0.000007 -0.000000 1.000000 -0.000004 -0.000000 1.000000 -0.000006 -0.000000 1.000000 0.000000 -0.000000 1.000000 0.000000 -0.000000 1.000000 -0.000000 -0.000000 1.000000 -0.000000 -0.000000 1.000000 0.000000 1.000000 0.000000 0.000000 1.000000 0.000000 0.000000 1.000000 0.000000 0.000000 1.000000 0.000000 0.000000 1.000000 0.000000 0.000000 1.000000 0.000000 0.000000 1.000000 0.000000 0.000000 1.000000 0.000000 0.000000 -1.000000 0.000000 0.000000 -1.000000 0.000000 0.000000 -1.000000 0.000000 0.000000 -1.000000 0.000000 0.000000 -1.000000 0.000000 0.000000 -1.000000 0.000000 0.000000 -1.000000 0.000000 0.000000 -1.000000 0.000000 
					</float_array>
					<technique_common>
						<accessor count="48" offset="0" source="#meshId1-bitangents-array" stride="3">
							<param name="X" type="float" />
							<param name="Y" type="float" />
							<param name="Z" type="float" />
						</accessor>
					</technique_common>
				</source>
				<source id="meshId1-tex0" name="meshId1-tex0">
					<float_array id="meshId1-tex0-array" count="96"> 
						0.076742 0.493222 0.076742 0.416480 0.225833 0.416480 0.225833 0.493222 0.076742 0.797139 0.076742 0.720397 0.225833 0.720397 0.225833 0.797139 0.227744 0.493222 0.302575 0.493222 0.302575 0.720397 0.227744 0.720397 0.074830 0.720397 0.000000 0.720397 0.000000 0.493222 0.074830 0.493222 0.074830 0.493222 0.076742 0.493222 0.225833 0.493222 0.227744 0.493222 0.227744 0.720397 0.225833 0.720397 0.076742 0.720397 0.074830 0.720397 0.800405 0.001909 0.802314 0.000000 0.951221 0.000000 0.953129 0.001909 0.953129 0.228802 0.951221 0.230711 0.802314 0.230711 0.800405 0.228802 0.074830 0.416480 0.076742 0.416480 0.076742 0.493222 0.074830 0.493222 0.225833 0.416480 0.227744 0.416480 0.227744 0.493222 0.225833 0.493222 0.074830 0.720397 0.076742 0.720397 0.076742 0.797139 0.074830 0.797139 0.225833 0.720397 0.227744 0.720397 0.227744 0.797139 0.225833 0.797139 
					</float_array>
					<technique_common>
						<accessor count="48" offset="0" source="#meshId1-tex0-array" stride="2">
							<param name="S" type="float" />
							<param name="T" type="float" />
						</accessor>
					</technique_common>
				</source>
				<vertices id="meshId1-vertices">
					<input semantic="POSITION" source="#meshId1-positions" />
				</vertices>
				<polylist count="28" material="defaultMaterial">
					<input offset="0" semantic="VERTEX" source="#meshId1-vertices" />
					<input offset="0" semantic="NORMAL" source="#meshId1-normals" />
					<input offset="0" semantic="TANGENT" source="#meshId1-tangents" />
					<input offset="0" semantic="BINORMAL" source="#meshId1-bitangents" />
					<input offset="0" semantic="TEXCOORD" source="#meshId1-tex0" set="0" />
					<vcount>
						3 3 3 3 3 3 3 3 3 3 3 3 3 3 3 3 3 3 3 3 3 3 3 3 3 3 3 3 
					</vcount>
					<p>
						3 0 1 1 2 3 7 4 5 5 6 7 11 8 9 9 10 11 15 12 13 13 14 15 23 16 17 23 17 18 23 18 19 23 19 20 23 20 21 21 22 23 31 24 25 31 25 26 31 26 27 31 27 28 31 28 29 29 30 31 35 32 33 33 34 35 39 36 37 37 38 39 43 40 41 41 42 43 47 44 45 45 46 47 
					</p>
				</polylist>
			</mesh>
		</geometry>
		<geometry id="meshId2" name="meshId2_name" >
			<mesh>
				<source id="meshId2-positions" name="meshId2-positions">
					<float_array id="meshId2-positions-array" count="144"> 
						-14.549475 7.302498 22.542500 -14.549475 -7.302496 22.542500 14.549475 -7.302496 22.542500 14.549475 7.302498 22.542500 -14.549475 -7.302496 -22.542500 -14.549475 7.302498 -22.542500 14.549475 7.302498 -22.542500 14.549475 -7.302496 -22.542500 14.922500 7.302498 22.169476 14.922500 -7.302496 22.169476 14.922499 -7.302496 -22.169476 14.922499 7.302498 -22.169476 -14.922500 7.302498 -22.169476 -14.922500 -7.302496 -22.169476 -14.922499 -7.302496 22.169476 -14.922499 7.302498 22.169476 -14.922499 7.302498 22.169476 -14.549475 7.302498 22.542500 14.549475 7.302498 22.542500 14.922500 7.302498 22.169476 14.922499 7.302498 -22.169476 14.549475 7.302498 -22.542500 -14.549475 7.302498 -22.542500 -14.922500 7.302498 -22.169476 -14.922500 -7.302496 -22.169476 -14.549475 -7.302496 -22.542500 14.549475 -7.302496 -22.542500 14.922499 -7.302496 -22.169476 14.922500 -7.302496 22.169476 14.549475 -7.302496 22.542500 -14.549475 -7.302496 22.542500 -14.922499 -7.302496 22.169476 -14.922499 -7.302496 22.169476 -14.549475 -7.302496 22.542500 -14.549475 7.302498 22.542500 -14.922499 7.302498 22.169476 14.549475 -7.302496 22.542500 14.922500 -7.302496 22.169476 14.922500 7.302498 22.169476 14.549475 7.302498 22.542500 -14.922500 7.302498 -22.169476 -14.549475 7.302498 -22.542500 -14.549475 -7.302496 -22.542500 -14.922500 -7.302496 -22.169476 14.549475 7.302498 -22.542500 14.922499 7.302498 -22.169476 14.922499 -7.302496 -22.169476 14.549475 -7.302496 -22.542500 
					</float_array>
					<technique_common>
						<accessor count="48" offset="0" source="#meshId2-positions-array" stride="3">
							<param name="X" type="float" />
							<param name="Y" type="float" />
							<param name="Z" type="float" />
						</accessor>
					</technique_common>
				</source>
				<source id="meshId2-normals" name="meshId2-normals">
					<float_array id="meshId2-normals-array" count="144"> 
						0.000000 0.000000 1.000000 0.000000 0.000000 1.000000 0.000000 0.000000 1.000000 0.000000 0.000000 1.000000 0.000000 0.000000 -1.000000 0.000000 0.000000 -1.000000 0.000000 0.000000 -1.000000 0.000000 0.000000 -1.000000 1.000000 0.000000 0.000000 1.000000 0.000000 0.000000 1.000000 0.000000 0.000000 1.000000 0.000000 0.000000 -1.000000 0.000000 0.000000 -1.000000 0.000000 0.000000 -1.000000 0.000000 0.000000 -1.000000 0.000000 0.000000 0.000000 1.000000 -0.000000 0.000000 1.000000 -0.000000 0.000000 1.000000 -0.000000 0.000000 1.000000 -0.000000 0.000000 1.000000 -0.000000 0.000000 1.000000 -0.000000 0.000000 1.000000 -0.000000 0.000000 1.000000 -0.000000 0.000000 -1.000000 0.000000 -0.000000 -1.000000 0.000000 -0.000000 -1.000000 0.000000 0.000000 -1.000000 0.000000 0.000000 -1.000000 0.000000 -0.000000 -1.000000 0.000000 -0.000000 -1.000000 0.000000 0.000000 -1.000000 0.000000 -0.707109 0.000000 0.707105 -0.707109 0.000000 0.707105 -0.707109 0.000000 0.707105 -0.707109 0.000000 0.707105 0.707109 0.000000 0.707105 0.707109 0.000000 0.707105 0.707109 0.000000 0.707105 0.707109 0.000000 0.707105 -0.707109 0.000000 -0.707105 -0.707109 0.000000 -0.707105 -0.707109 0.000000 -0.707105 -0.707109 0.000000 -0.707105 0.707109 0.000000 -0.707105 0.707109 0.000000 -0.707105 0.707109 0.000000 -0.707105 0.707109 0.000000 -0.707105 
					</float_array>
					<technique_common>
						<accessor count="48" offset="0" source="#meshId2-normals-array" stride="3">
							<param name="X" type="float" />
							<param name="Y" type="float" />
							<param name="Z" type="float" />
						</accessor>
					</technique_common>
				</source>
				<source id="meshId2-tangents" name="meshId2-tangents">
					<float_array id="meshId2-tangents-array" count="144"> 
						1.000000 0.000000 0.000000 1.000000 -0.000000 0.000000 1.000000 -0.000000 0.000000 1.000000 -0.000000 0.000000 1.000000 0.000000 0.000000 1.000000 0.000000 0.000000 1.000000 0.000000 0.000000 1.000000 0.000000 0.000000 0.000000 -1.000000 0.000000 0.000000 -1.000000 0.000000 0.000000 -1.000000 0.000000 0.000000 -1.000000 0.000000 -0.000000 1.000000 -0.000002 0.000000 1.000000 -0.000001 0.000000 1.000000 0.000000 -0.000000 1.000000 -0.000000 0.707110 0.000000 0.707104 0.968262 0.000000 0.249939 0.896305 -0.000000 -0.443438 0.827716 -0.000000 -0.561147 1.000000 -0.000000 0.000000 0.460137 0.000000 -0.887848 0.460137 0.000000 -0.887848 1.000000 -0.000000 -0.000598 1.000000 0.000000 0.000020 1.000000 0.000000 0.000007 1.000000 0.000000 0.000004 1.000000 0.000000 0.000006 1.000000 0.000000 0.000000 1.000000 0.000000 0.000000 1.000000 0.000000 0.000000 1.000000 0.000000 0.000000 0.707105 0.000000 0.707109 0.707105 0.000000 0.707109 0.707105 0.000000 0.707109 0.707105 0.000000 0.707109 0.707105 0.000010 -0.707109 0.707105 0.000010 -0.707109 0.707105 0.000000 -0.707109 0.707105 0.000000 -0.707109 0.707105 0.000000 -0.707109 0.707105 0.000000 -0.707109 0.707105 0.000000 -0.707109 0.707105 0.000000 -0.707109 0.707105 0.000000 0.707109 0.707105 0.000000 0.707109 0.707105 0.000000 0.707109 0.707105 0.000000 0.707109 
					</float_array>
					<technique_common>
						<accessor count="48" offset="0" source="#meshId2-tangents-array" stride="3">
							<param name="X" type="float" />
							<param name="Y" type="float" />
							<param name="Z" type="float" />
						</accessor>
					</technique_common>
				</source>
				<source id="meshId2-bitangents" name="meshId2-bitangents">
					<float_array id="meshId2-bitangents-array" count="144"> 
						0.000000 1.000000 0.000000 0.000000 1.000000 0.000000 0.000000 1.000000 0.000000 0.000000 1.000000 0.000000 0.000000 -1.000000 0.000000 0.000000 -1.000000 0.000000 0.000000 -1.000000 0.000000 0.000000 -1.000000 0.000000 0.000000 0.000000 -1.000000 0.000000 0.000000 -1.000000 0.000000 0.000000 -1.000000 0.000000 0.000000 -1.000000 0.000000 -0.000002 -1.000000 0.000000 -0.000001 -1.000000 0.000000 0.000000 -1.000000 0.000000 -0.000000 -1.000000 0.707104 -0.000000 -0.707110 0.249939 -0.000000 -0.968262 -0.443438 -0.000000 -0.896305 -0.561147 -0.000000 -0.827716 0.000000 -0.000000 -1.000000 0.887848 0.000000 0.460137 0.887848 0.000000 0.460137 -0.000598 -0.000000 -1.000000 -0.000020 0.000000 1.000000 -0.000007 0.000000 1.000000 -0.000004 0.000000 1.000000 -0.000006 0.000000 1.000000 -0.000000 0.000000 1.000000 -0.000000 0.000000 1.000000 -0.000000 0.000000 1.000000 -0.000000 0.000000 1.000000 0.000000 1.000000 0.000000 0.000000 1.000000 0.000000 0.000000 1.000000 0.000000 0.000000 1.000000 0.000000 -0.000007 1.000000 0.000007 -0.000007 1.000000 0.000007 0.000000 1.000000 0.000000 -0.000000 1.000000 0.000000 0.000000 -1.000000 0.000000 0.000000 -1.000000 0.000000 0.000000 -1.000000 0.000000 0.000000 -1.000000 0.000000 0.000000 -1.000000 0.000000 0.000000 -1.000000 0.000000 0.000000 -1.000000 0.000000 0.000000 -1.000000 0.000000 
					</float_array>
					<technique_common>
						<accessor count="48" offset="0" source="#meshId2-bitangents-array" stride="3">
							<param name="X" type="float" />
							<param name="Y" type="float" />
							<param name="Z" type="float" />
						</accessor>
					</technique_common>
				</source>
				<source id="meshId2-tex0" name="meshId2-tex0">
					<float_array id="meshId2-tex0-array" count="96"> 
						0.379598 0.493222 0.379598 0.416480 0.528689 0.416480 0.528689 0.493222 0.379598 0.797139 0.379598 0.720397 0.528689 0.720397 0.528689 0.797139 0.530600 0.493222 0.605431 0.493222 0.605431 0.720397 0.530600 0.720397 0.377686 0.720397 0.302856 0.720397 0.302856 0.493222 0.377686 0.493222 0.377686 0.493222 0.379598 0.493222 0.528689 0.493222 0.530600 0.493222 0.530600 0.720397 0.528689 0.720397 0.379598 0.720397 0.377686 0.720397 0.847276 0.232620 0.849185 0.230711 0.998091 0.230711 1.000000 0.232620 1.000000 0.459512 0.998091 0.461421 0.849185 0.461421 0.847276 0.459512 0.377686 0.416480 0.379598 0.416480 0.379598 0.493222 0.377686 0.493222 0.528689 0.416480 0.530600 0.416480 0.530600 0.493222 0.528689 0.493222 0.377686 0.720397 0.379598 0.720397 0.379598 0.797139 0.377686 0.797139 0.528689 0.720397 0.530600 0.720397 0.530600 0.797139 0.528689 0.797139 
					</float_array>
					<technique_common>
						<accessor count="48" offset="0" source="#meshId2-tex0-array" stride="2">
							<param name="S" type="float" />
							<param name="T" type="float" />
						</accessor>
					</technique_common>
				</source>
				<vertices id="meshId2-vertices">
					<input semantic="POSITION" source="#meshId2-positions" />
				</vertices>
				<polylist count="28" material="defaultMaterial">
					<input offset="0" semantic="VERTEX" source="#meshId2-vertices" />
					<input offset="0" semantic="NORMAL" source="#meshId2-normals" />
					<input offset="0" semantic="TANGENT" source="#meshId2-tangents" />
					<input offset="0" semantic="BINORMAL" source="#meshId2-bitangents" />
					<input offset="0" semantic="TEXCOORD" source="#meshId2-tex0" set="0" />
					<vcount>
						3 3 3 3 3 3 3 3 3 3 3 3 3 3 3 3 3 3 3 3 3 3 3 3 3 3 3 3 
					</vcount>
					<p>
						3 0 1 1 2 3 7 4 5 5 6 7 11 8 9 9 10 11 15 12 13 13 14 15 23 16 17 23 17 18 23 18 19 23 19 20 23 20 21 21 22 23 31 24 25 31 25 26 31 26 27 31 27 28 31 28 29 29 30 31 35 32 33 33 34 35 39 36 37 37 38 39 43 40 41 41 42 43 47 44 45 45 46 47 
					</p>
				</polylist>
			</mesh>
		</geometry>
		<geometry id="meshId3" name="meshId3_name" >
			<mesh>
				<source id="meshId3-positions" name="meshId3-positions">
					<float_array id="meshId3-positions-array" count="144"> 
						-24.812683 7.620000 23.495001 -24.812683 -7.619998 23.495001 24.812683 -7.619998 23.495001 24.812683 7.620000 23.495001 -24.812683 -7.619998 -23.495001 -24.812683 7.620000 -23.495001 24.812683 7.620000 -23.495001 24.812683 -7.619998 -23.495001 25.399998 7.620000 22.907684 25.399998 -7.619998 22.907684 25.399998 -7.619998 -22.907684 25.399998 7.620000 -22.907684 -25.399998 7.620000 -22.907684 -25.399998 -7.619998 -22.907684 -25.399998 -7.619998 22.907684 -25.399998 7.620000 22.907684 -25.399998 7.620000 22.907684 -24.812683 7.620000 23.495001 24.812683 7.620000 23.495001 25.399998 7.620000 22.907684 25.399998 7.620000 -22.907684 24.812683 7.620000 -23.495001 -24.812683 7.620000 -23.495001 -25.399998 7.620000 -22.907684 -25.399998 -7.619998 -22.907684 -24.812683 -7.619998 -23.495001 24.812683 -7.619998 -23.495001 25.399998 -7.619998 -22.907684 25.399998 -7.619998 22.907684 24.812683 -7.619998 23.495001 -24.812683 -7.619998 23.495001 -25.399998 -7.619998 22.907684 -25.399998 -7.619998 22.907684 -24.812683 -7.619998 23.495001 -24.812683 7.620000 23.495001 -25.399998 7.620000 22.907684 24.812683 -7.619998 23.495001 25.399998 -7.619998 22.907684 25.399998 7.620000 22.907684 24.812683 7.620000 23.495001 -25.399998 7.620000 -22.907684 -24.812683 7.620000 -23.495001 -24.812683 -7.619998 -23.495001 -25.399998 -7.619998 -22.907684 24.812683 7.620000 -23.495001 25.399998 7.620000 -22.907684 25.399998 -7.619998 -22.907684 24.812683 -7.619998 -23.495001 
					</float_array>
					<technique_common>
						<accessor count="48" offset="0" source="#meshId3-positions-array" stride="3">
							<param name="X" type="float" />
							<param name="Y" type="float" />
							<param name="Z" type="float" />
						</accessor>
					</technique_common>
				</source>
				<source id="meshId3-normals" name="meshId3-normals">
					<float_array id="meshId3-normals-array" count="144"> 
						0.000000 0.000000 1.000000 0.000000 0.000000 1.000000 0.000000 0.000000 1.000000 0.000000 0.000000 1.000000 0.000000 0.000000 -1.000000 0.000000 0.000000 -1.000000 0.000000 0.000000 -1.000000 0.000000 0.000000 -1.000000 1.000000 0.000000 0.000000 1.000000 0.000000 0.000000 1.000000 0.000000 0.000000 1.000000 0.000000 0.000000 -1.000000 0.000000 0.000000 -1.000000 0.000000 0.000000 -1.000000 0.000000 0.000000 -1.000000 0.000000 0.000000 0.000000 1.000000 0.000000 0.000000 1.000000 0.000000 0.000000 1.000000 0.000000 0.000000 1.000000 0.000000 0.000000 1.000000 0.000000 0.000000 1.000000 0.000000 0.000000 1.000000 0.000000 0.000000 1.000000 0.000000 0.000000 -1.000000 -0.000000 0.000000 -1.000000 -0.000000 0.000000 -1.000000 -0.000000 0.000000 -1.000000 -0.000000 0.000000 -1.000000 -0.000000 0.000000 -1.000000 -0.000000 0.000000 -1.000000 -0.000000 0.000000 -1.000000 -0.000000 -0.707107 0.000000 0.707106 -0.707107 0.000000 0.707106 -0.707107 0.000000 0.707106 -0.707107 0.000000 0.707106 0.707107 0.000000 0.707106 0.707107 0.000000 0.707106 0.707107 0.000000 0.707106 0.707107 0.000000 0.707106 -0.707107 0.000000 -0.707106 -0.707107 0.000000 -0.707106 -0.707107 0.000000 -0.707106 -0.707107 0.000000 -0.707106 0.707107 0.000000 -0.707106 0.707107 0.000000 -0.707106 0.707107 0.000000 -0.707106 0.707107 0.000000 -0.707106 
					</float_array>
					<technique_common>
						<accessor count="48" offset="0" source="#meshId3-normals-array" stride="3">
							<param name="X" type="float" />
							<param name="Y" type="float" />
							<param name="Z" type="float" />
						</accessor>
					</technique_common>
				</source>
				<source id="meshId3-tangents" name="meshId3-tangents">
					<float_array id="meshId3-tangents-array" count="144"> 
						0.000000 1.000000 0.000000 0.000000 1.000000 0.000000 0.000001 1.000000 0.000000 0.000000 1.000000 0.000000 0.000000 -1.000000 0.000000 0.000000 -1.000000 0.000000 0.000001 -1.000000 0.000000 0.000000 -1.000000 0.000000 0.000000 -0.000000 -1.000000 0.000000 -0.000000 -1.000000 0.000000 -0.000000 -1.000000 0.000000 -0.000000 -1.000000 0.000000 0.000000 -1.000000 0.000000 0.000000 -1.000000 0.000000 0.000000 -1.000000 0.000000 0.000000 -1.000000 0.000000 0.000000 -1.000000 0.000000 0.000000 -1.000000 -0.000002 0.000000 -1.000000 -0.000002 0.000000 -1.000000 0.000000 0.000000 -1.000000 1.000000 0.000000 0.000000 1.000000 0.000000 0.000000 0.000000 0.000000 -1.000000 0.000000 -0.000000 1.000000 -0.000000 -0.000000 1.000000 0.000005 -0.000000 1.000000 0.000005 -0.000000 1.000000 0.000000 -0.000000 1.000000 0.000000 -0.000000 1.000000 0.000014 -0.000000 1.000000 0.000005 -0.000000 1.000000 0.000000 1.000000 0.000000 0.000000 1.000000 0.000000 0.000000 1.000000 0.000000 0.000000 1.000000 0.000000 0.000000 1.000000 -0.000000 0.000000 1.000000 -0.000000 -0.000000 1.000000 0.000000 -0.000000 1.000000 0.000000 0.000000 -1.000000 0.000000 0.000000 -1.000000 0.000000 0.000000 -1.000000 0.000000 0.000000 -1.000000 0.000000 0.000001 -1.000000 0.000001 0.000001 -1.000000 0.000001 0.000000 -1.000000 0.000000 0.000000 -1.000000 0.000000 
					</float_array>
					<technique_common>
						<accessor count="48" offset="0" source="#meshId3-tangents-array" stride="3">
							<param name="X" type="float" />
							<param name="Y" type="float" />
							<param name="Z" type="float" />
						</accessor>
					</technique_common>
				</source>
				<source id="meshId3-bitangents" name="meshId3-bitangents">
					<float_array id="meshId3-bitangents-array" count="144"> 
						-1.000000 0.000000 0.000000 -1.000000 0.000000 0.000000 -1.000000 0.000001 0.000000 -1.000000 0.000000 0.000000 -1.000000 -0.000000 -0.000000 -1.000000 -0.000000 -0.000000 -1.000000 -0.000001 -0.000000 -1.000000 -0.000000 -0.000000 0.000000 1.000000 -0.000000 0.000000 1.000000 -0.000000 0.000000 1.000000 -0.000000 0.000000 1.000000 -0.000000 -0.000000 -1.000000 -0.000000 -0.000000 -1.000000 -0.000000 -0.000000 -1.000000 -0.000000 -0.000000 -1.000000 -0.000000 -1.000000 0.000000 0.000000 -1.000000 0.000000 -0.000000 -1.000000 -0.000000 0.000002 -1.000000 -0.000000 0.000002 -1.000000 0.000000 0.000000 0.000000 -0.000000 1.000000 0.000000 -0.000000 1.000000 -1.000000 0.000000 -0.000000 -1.000000 0.000000 0.000000 -1.000000 0.000000 -0.000000 -1.000000 -0.000000 0.000005 -1.000000 -0.000000 0.000005 -1.000000 0.000000 0.000000 -1.000000 -0.000000 0.000000 -1.000000 -0.000000 0.000014 -1.000000 -0.000000 0.000005 -0.707106 0.000000 -0.707107 -0.707106 0.000000 -0.707107 -0.707106 0.000000 -0.707107 -0.707106 0.000000 -0.707107 -0.707106 0.000001 0.707107 -0.707106 0.000001 0.707107 -0.707106 -0.000000 0.707107 -0.707106 -0.000000 0.707107 -0.707106 0.000000 0.707107 -0.707106 0.000000 0.707107 -0.707106 0.000000 0.707107 -0.707106 0.000000 0.707107 -0.707106 -0.000001 -0.707107 -0.707106 -0.000001 -0.707107 -0.707106 -0.000000 -0.707107 -0.707106 -0.000000 -0.707107 
					</float_array>
					<technique_common>
						<accessor count="48" offset="0" source="#meshId3-bitangents-array" stride="3">
							<param name="X" type="float" />
							<param name="Y" type="float" />
							<param name="Z" type="float" />
						</accessor>
					</technique_common>
				</source>
				<source id="meshId3-tex0" name="meshId3-tex0">
					<float_array id="meshId3-tex0-array" count="96"> 
						0.481302 0.335381 0.400203 0.335381 0.400203 0.081099 0.481302 0.081100 0.797160 0.335381 0.716061 0.335381 0.716061 0.081099 0.797160 0.081100 0.481302 0.078090 0.481302 0.000000 0.716061 0.000000 0.716061 0.078090 0.716061 0.338390 0.716061 0.416480 0.481302 0.416480 0.481302 0.338390 0.481302 0.338390 0.481302 0.335381 0.481302 0.081100 0.481302 0.078090 0.716061 0.078090 0.716061 0.081099 0.716061 0.335381 0.716061 0.338390 0.608718 0.936392 0.605712 0.933386 0.605712 0.679441 0.608718 0.676436 0.843166 0.676436 0.846171 0.679441 0.846171 0.933386 0.843166 0.936392 0.400203 0.338390 0.400203 0.335381 0.481302 0.335381 0.481302 0.338390 0.400203 0.081099 0.400203 0.078090 0.481302 0.078090 0.481302 0.081100 0.716061 0.338390 0.716061 0.335381 0.797160 0.335381 0.797160 0.338390 0.716061 0.081099 0.716061 0.078090 0.797160 0.078090 0.797160 0.081100 
					</float_array>
					<technique_common>
						<accessor count="48" offset="0" source="#meshId3-tex0-array" stride="2">
							<param name="S" type="float" />
							<param name="T" type="float" />
						</accessor>
					</technique_common>
				</source>
				<vertices id="meshId3-vertices">
					<input semantic="POSITION" source="#meshId3-positions" />
				</vertices>
				<polylist count="28" material="defaultMaterial">
					<input offset="0" semantic="VERTEX" source="#meshId3-vertices" />
					<input offset="0" semantic="NORMAL" source="#meshId3-normals" />
					<input offset="0" semantic="TANGENT" source="#meshId3-tangents" />
					<input offset="0" semantic="BINORMAL" source="#meshId3-bitangents" />
					<input offset="0" semantic="TEXCOORD" source="#meshId3-tex0" set="0" />
					<vcount>
						3 3 3 3 3 3 3 3 3 3 3 3 3 3 3 3 3 3 3 3 3 3 3 3 3 3 3 3 
					</vcount>
					<p>
						3 0 1 1 2 3 7 4 5 5 6 7 11 8 9 9 10 11 15 12 13 13 14 15 23 16 17 23 17 18 23 18 19 23 19 20 23 20 21 21 22 23 31 24 25 31 25 26 31 26 27 31 27 28 31 28 29 29 30 31 35 32 33 33 34 35 39 36 37 37 38 39 43 40 41 41 42 43 47 44 45 45 46 47 
					</p>
				</polylist>
			</mesh>
		</geometry>
		<geometry id="meshId4" name="meshId4_name" >
			<mesh>
				<source id="meshId4-positions" name="meshId4-positions">
					<float_array id="meshId4-positions-array" count="144"> 
						-24.812683 7.620001 23.495001 -24.812683 -7.619999 23.495001 24.812683 -7.619999 23.495001 24.812683 7.620001 23.495001 -24.812683 -7.619999 -23.495001 -24.812683 7.620001 -23.495001 24.812683 7.620001 -23.495001 24.812683 -7.619999 -23.495001 25.399998 7.620001 22.907684 25.399998 -7.619999 22.907684 25.399998 -7.619999 -22.907684 25.399998 7.620001 -22.907684 -25.399998 7.620001 -22.907684 -25.399998 -7.619999 -22.907684 -25.399998 -7.619999 22.907684 -25.399998 7.620001 22.907684 -25.399998 7.620001 22.907684 -24.812683 7.620001 23.495001 24.812683 7.620001 23.495001 25.399998 7.620001 22.907684 25.399998 7.620001 -22.907684 24.812683 7.620001 -23.495001 -24.812683 7.620001 -23.495001 -25.399998 7.620001 -22.907684 -25.399998 -7.619999 -22.907684 -24.812683 -7.619999 -23.495001 24.812683 -7.619999 -23.495001 25.399998 -7.619999 -22.907684 25.399998 -7.619999 22.907684 24.812683 -7.619999 23.495001 -24.812683 -7.619999 23.495001 -25.399998 -7.619999 22.907684 -25.399998 -7.619999 22.907684 -24.812683 -7.619999 23.495001 -24.812683 7.620001 23.495001 -25.399998 7.620001 22.907684 24.812683 -7.619999 23.495001 25.399998 -7.619999 22.907684 25.399998 7.620001 22.907684 24.812683 7.620001 23.495001 -25.399998 7.620001 -22.907684 -24.812683 7.620001 -23.495001 -24.812683 -7.619999 -23.495001 -25.399998 -7.619999 -22.907684 24.812683 7.620001 -23.495001 25.399998 7.620001 -22.907684 25.399998 -7.619999 -22.907684 24.812683 -7.619999 -23.495001 
					</float_array>
					<technique_common>
						<accessor count="48" offset="0" source="#meshId4-positions-array" stride="3">
							<param name="X" type="float" />
							<param name="Y" type="float" />
							<param name="Z" type="float" />
						</accessor>
					</technique_common>
				</source>
				<source id="meshId4-normals" name="meshId4-normals">
					<float_array id="meshId4-normals-array" count="144"> 
						0.000000 0.000000 1.000000 0.000000 0.000000 1.000000 0.000000 0.000000 1.000000 0.000000 0.000000 1.000000 0.000000 0.000000 -1.000000 0.000000 0.000000 -1.000000 0.000000 0.000000 -1.000000 0.000000 0.000000 -1.000000 1.000000 0.000000 0.000000 1.000000 0.000000 0.000000 1.000000 0.000000 0.000000 1.000000 0.000000 0.000000 -1.000000 0.000000 0.000000 -1.000000 0.000000 0.000000 -1.000000 0.000000 0.000000 -1.000000 0.000000 0.000000 0.000000 1.000000 0.000000 0.000000 1.000000 0.000000 0.000000 1.000000 0.000000 0.000000 1.000000 0.000000 0.000000 1.000000 0.000000 0.000000 1.000000 0.000000 0.000000 1.000000 0.000000 0.000000 1.000000 0.000000 0.000000 -1.000000 -0.000000 0.000000 -1.000000 -0.000000 0.000000 -1.000000 -0.000000 0.000000 -1.000000 -0.000000 0.000000 -1.000000 -0.000000 0.000000 -1.000000 -0.000000 0.000000 -1.000000 -0.000000 0.000000 -1.000000 -0.000000 -0.707107 0.000000 0.707106 -0.707107 0.000000 0.707106 -0.707107 0.000000 0.707106 -0.707107 0.000000 0.707106 0.707107 0.000000 0.707106 0.707107 0.000000 0.707106 0.707107 0.000000 0.707106 0.707107 0.000000 0.707106 -0.707107 0.000000 -0.707106 -0.707107 0.000000 -0.707106 -0.707107 0.000000 -0.707106 -0.707107 0.000000 -0.707106 0.707107 0.000000 -0.707106 0.707107 0.000000 -0.707106 0.707107 0.000000 -0.707106 0.707107 0.000000 -0.707106 
					</float_array>
					<technique_common>
						<accessor count="48" offset="0" source="#meshId4-normals-array" stride="3">
							<param name="X" type="float" />
							<param name="Y" type="float" />
							<param name="Z" type="float" />
						</accessor>
					</technique_common>
				</source>
				<source id="meshId4-tangents" name="meshId4-tangents">
					<float_array id="meshId4-tangents-array" count="144"> 
						0.000000 1.000000 0.000000 0.000000 1.000000 0.000000 0.000001 1.000000 0.000000 0.000000 1.000000 0.000000 0.000000 -1.000000 0.000000 0.000000 -1.000000 0.000000 0.000001 -1.000000 0.000000 0.000001 -1.000000 0.000000 0.000000 -0.000000 -1.000000 0.000000 -0.000000 -1.000000 0.000000 -0.000000 -1.000000 0.000000 -0.000000 -1.000000 0.000000 0.000000 -1.000000 0.000000 0.000000 -1.000000 0.000000 0.000000 -1.000000 0.000000 0.000000 -1.000000 0.000000 0.000000 -1.000000 0.000000 0.000000 -1.000000 -0.000002 0.000000 -1.000000 -0.000002 0.000000 -1.000000 0.000000 0.000000 -1.000000 1.000000 0.000000 0.000000 1.000000 0.000000 0.000000 -0.000000 0.000000 -1.000000 0.000000 -0.000000 1.000000 -0.000000 -0.000000 1.000000 0.000005 -0.000000 1.000000 0.000005 -0.000000 1.000000 0.000002 -0.000000 1.000000 0.000007 -0.000000 1.000000 0.000021 -0.000000 1.000000 0.000007 -0.000000 1.000000 0.000000 1.000000 0.000000 0.000000 1.000000 0.000000 0.000000 1.000000 0.000000 0.000000 1.000000 0.000000 0.000000 1.000000 -0.000000 0.000000 1.000000 -0.000000 -0.000000 1.000000 0.000000 -0.000000 1.000000 0.000000 0.000000 -1.000000 0.000000 0.000000 -1.000000 0.000000 0.000000 -1.000000 0.000000 0.000000 -1.000000 0.000000 0.000001 -1.000000 0.000001 0.000001 -1.000000 0.000001 0.000000 -1.000000 0.000000 0.000000 -1.000000 0.000000 
					</float_array>
					<technique_common>
						<accessor count="48" offset="0" source="#meshId4-tangents-array" stride="3">
							<param name="X" type="float" />
							<param name="Y" type="float" />
							<param name="Z" type="float" />
						</accessor>
					</technique_common>
				</source>
				<source id="meshId4-bitangents" name="meshId4-bitangents">
					<float_array id="meshId4-bitangents-array" count="144"> 
						-1.000000 0.000000 0.000000 -1.000000 0.000000 0.000000 -1.000000 0.000001 0.000000 -1.000000 0.000000 0.000000 -1.000000 -0.000000 -0.000000 -1.000000 -0.000000 -0.000000 -1.000000 -0.000001 -0.000000 -1.000000 -0.000001 -0.000000 0.000000 1.000000 -0.000000 0.000000 1.000000 -0.000000 0.000000 1.000000 -0.000000 0.000000 1.000000 -0.000000 -0.000000 -1.000000 -0.000000 -0.000000 -1.000000 -0.000000 -0.000000 -1.000000 -0.000000 -0.000000 -1.000000 -0.000000 -1.000000 0.000000 0.000000 -1.000000 0.000000 -0.000000 -1.000000 -0.000000 0.000002 -1.000000 -0.000000 0.000002 -1.000000 0.000000 0.000000 0.000000 -0.000000 1.000000 0.000000 -0.000000 1.000000 -1.000000 -0.000000 0.000000 -1.000000 0.000000 0.000000 -1.000000 0.000000 -0.000000 -1.000000 -0.000000 0.000005 -1.000000 -0.000000 0.000005 -1.000000 -0.000000 0.000002 -1.000000 -0.000000 0.000007 -1.000000 -0.000000 0.000021 -1.000000 -0.000000 0.000007 -0.707106 0.000000 -0.707107 -0.707106 0.000000 -0.707107 -0.707106 0.000000 -0.707107 -0.707106 0.000000 -0.707107 -0.707106 0.000001 0.707107 -0.707106 0.000001 0.707107 -0.707106 -0.000000 0.707107 -0.707106 -0.000000 0.707107 -0.707106 0.000000 0.707107 -0.707106 0.000000 0.707107 -0.707106 0.000000 0.707107 -0.707106 0.000000 0.707107 -0.707106 -0.000001 -0.707107 -0.707106 -0.000001 -0.707107 -0.707106 -0.000000 -0.707107 -0.707106 -0.000000 -0.707107 
					</float_array>
					<technique_common>
						<accessor count="48" offset="0" source="#meshId4-bitangents-array" stride="3">
							<param name="X" type="float" />
							<param name="Y" type="float" />
							<param name="Z" type="float" />
						</accessor>
					</technique_common>
				</source>
				<source id="meshId4-tex0" name="meshId4-tex0">
					<float_array id="meshId4-tex0-array" count="96"> 
						0.084823 0.336213 0.003523 0.336213 0.003523 0.081301 0.084823 0.081301 0.401465 0.336213 0.320164 0.336213 0.320164 0.081301 0.401465 0.081301 0.084823 0.078284 0.084823 0.000000 0.320164 0.000000 0.320164 0.078284 0.320164 0.339230 0.320164 0.417514 0.084823 0.417514 0.084823 0.339230 0.084823 0.339230 0.084823 0.336213 0.084823 0.081301 0.084823 0.078284 0.320164 0.078284 0.320164 0.081301 0.320164 0.336213 0.320164 0.339230 0.608595 0.678072 0.605586 0.675063 0.605586 0.420824 0.608595 0.417815 0.843315 0.417815 0.846323 0.420824 0.846323 0.675063 0.843315 0.678072 0.003523 0.339230 0.003523 0.336213 0.084823 0.336213 0.084823 0.339230 0.003523 0.081301 0.003523 0.078284 0.084823 0.078284 0.084823 0.081301 0.320164 0.339230 0.320164 0.336213 0.401465 0.336213 0.401465 0.339230 0.320164 0.081301 0.320164 0.078284 0.401465 0.078284 0.401465 0.081301 
					</float_array>
					<technique_common>
						<accessor count="48" offset="0" source="#meshId4-tex0-array" stride="2">
							<param name="S" type="float" />
							<param name="T" type="float" />
						</accessor>
					</technique_common>
				</source>
				<vertices id="meshId4-vertices">
					<input semantic="POSITION" source="#meshId4-positions" />
				</vertices>
				<polylist count="28" material="defaultMaterial">
					<input offset="0" semantic="VERTEX" source="#meshId4-vertices" />
					<input offset="0" semantic="NORMAL" source="#meshId4-normals" />
					<input offset="0" semantic="TANGENT" source="#meshId4-tangents" />
					<input offset="0" semantic="BINORMAL" source="#meshId4-bitangents" />
					<input offset="0" semantic="TEXCOORD" source="#meshId4-tex0" set="0" />
					<vcount>
						3 3 3 3 3 3 3 3 3 3 3 3 3 3 3 3 3 3 3 3 3 3 3 3 3 3 3 3 
					</vcount>
					<p>
						3 0 1 1 2 3 7 4 5 5 6 7 11 8 9 9 10 11 15 12 13 13 14 15 23 16 17 23 17 18 23 18 19 23 19 20 23 20 21 21 22 23 31 24 25 31 25 26 31 26 27 31 27 28 31 28 29 29 30 31 35 32 33 33 34 35 39 36 37 37 38 39 43 40 41 41 42 43 47 44 45 45 46 47 
					</p>
				</polylist>
			</mesh>
		</geometry>
	</library_geometries>
	<library_visual_scenes>
		<visual_scene id="RootNode" name="RootNode">
			<node id="sm_box" name="sm_box">
				<matrix>0.895559 0.444942 -0.000000 -2.857790 0.000000 0.000000 1.000000 65.565002 0.444942 -0.895559 0.000000 1.303446 0.000000 0.000000 0.000000 1.000000</matrix>
				<instance_geometry url="#meshId0">
					<bind_material>
						<technique_common>
							<instance_material symbol="defaultMaterial" target="#boxTX" />
						</technique_common>
					</bind_material>
				</instance_geometry>
			</node>
			<node id="MedBox" name="MedBox">
				<matrix>0.460137 0.000000 -0.887848 0.000000 0.000000 1.000000 0.000000 0.000000 0.887848 0.000000 0.460137 0.000000 0.000000 0.000000 0.000000 1.000000</matrix>
				<node id="med_bottom" name="med_bottom">
					<matrix>1.000000 0.000000 0.000000 0.000000 0.000000 1.000000 0.000000 37.782501 0.000000 0.000000 1.000000 0.000000 0.000000 0.000000 0.000000 1.000000</matrix>
					<instance_geometry url="#meshId1">
						<bind_material>
							<technique_common>
								<instance_material symbol="defaultMaterial" target="#boxTX" />
							</technique_common>
						</bind_material>
					</instance_geometry>
				</node>
				<node id="med_top" name="med_top">
					<matrix>1.000000 0.000000 0.000000 0.000000 0.000000 1.000000 0.000000 52.387497 0.000000 0.000000 1.000000 0.000000 0.000000 0.000000 0.000000 1.000000</matrix>
					<instance_geometry url="#meshId2">
						<bind_material>
							<technique_common>
								<instance_material symbol="defaultMaterial" target="#boxTX" />
							</technique_common>
						</bind_material>
					</instance_geometry>
				</node>
			</node>
			<node id="LargeBox" name="LargeBox">
				<matrix>1.000000 0.000000 0.000000 0.000000 0.000000 1.000000 0.000000 0.000000 0.000000 0.000000 1.000000 0.000000 0.000000 0.000000 0.000000 1.000000</matrix>
				<node id="big_top" name="big_top">
					<matrix>1.000000 0.000000 0.000000 0.000000 0.000000 1.000000 0.000000 22.860001 0.000000 0.000000 1.000000 0.000000 0.000000 0.000000 0.000000 1.000000</matrix>
					<instance_geometry url="#meshId3">
						<bind_material>
							<technique_common>
								<instance_material symbol="defaultMaterial" target="#boxTX" />
							</technique_common>
						</bind_material>
					</instance_geometry>
				</node>
				<node id="big_bottom" name="big_bottom">
					<matrix>1.000000 0.000000 0.000000 0.000000 0.000000 1.000000 0.000000 7.620000 0.000000 0.000000 1.000000 0.000000 0.000000 0.000000 0.000000 1.000000</matrix>
					<instance_geometry url="#meshId4">
						<bind_material>
							<technique_common>
								<instance_material symbol="defaultMaterial" target="#boxTX" />
							</technique_common>
						</bind_material>
					</instance_geometry>
				</node>
			</node>
		</visual_scene>
	</library_visual_scenes>
	<scene>
		<instance_visual_scene url="#RootNode" />
	</scene>
</COLLADA>
